<svg width="141" height="140" viewBox="0 0 141 140" fill="none" xmlns="http://www.w3.org/2000/svg">
<path d="M94.8561 80.158L44.0332 102.069L65.2301 52.8995" fill="#FBBF24"/>
<path d="M48.8574 90.8803C52.5216 93.2429 56.1189 94.8197 59.2997 95.4891L69.856 90.9373L69.8758 90.8877C65.0018 90.853 58.5287 87.9846 52.2613 82.9866L48.8574 90.8803ZM64.9547 71.4213C63.099 69.5663 61.3789 67.5803 59.8079 65.4788L55.8586 74.6393C56.3966 75.2244 56.9445 75.807 57.5172 76.3797C63.8341 82.6966 70.8774 86.8145 76.5844 88.0342L87.22 83.4478C81.1238 83.4031 72.5161 78.9828 64.9547 71.4213Z" fill="#61E482"/>
<path d="M95.781 79.4419C99.5897 75.633 96.1581 66.0264 88.1163 57.9849C80.0745 49.9433 70.4678 46.5121 66.659 50.321C62.8503 54.1298 66.2819 63.7365 74.3237 71.778C82.3655 79.8195 91.9722 83.2508 95.781 79.4419Z" fill="#F59E0B"/>
<path d="M44.0326 103.309C43.827 103.309 43.6245 103.258 43.4434 103.161C43.2624 103.064 43.1084 102.923 42.9955 102.751C42.8825 102.579 42.8141 102.382 42.7965 102.177C42.7789 101.973 42.8126 101.767 42.8946 101.578L64.0915 52.4087C64.2262 52.1139 64.4711 51.8836 64.7736 51.7672C65.0762 51.6507 65.4123 51.6574 65.7099 51.7858C66.0075 51.9142 66.243 52.1541 66.3659 52.4541C66.4888 52.754 66.4894 53.0902 66.3674 53.3905L46.4051 99.6964L94.3646 79.0201C94.6649 78.8981 95.0011 78.8987 95.301 79.0216C95.601 79.1445 95.8409 79.38 95.9693 79.6776C96.0977 79.9752 96.1044 80.3113 95.9879 80.6139C95.8715 80.9164 95.6412 81.1612 95.3464 81.296L44.5234 103.207C44.3682 103.273 44.2013 103.308 44.0326 103.309Z" fill="#191D23"/>
<path d="M91.4466 82.2205C86.3991 82.2205 79.5417 78.7496 73.4454 72.6558C64.7906 63.9986 61.4239 53.8043 65.7823 49.4459C70.1481 45.0801 80.3375 48.4567 88.9923 57.109C97.647 65.7662 101.014 75.9606 96.6554 80.319C95.3662 81.6081 93.5639 82.2205 91.4466 82.2205ZM71.0381 50.0111C69.5333 50.0111 68.3259 50.4103 67.5376 51.1987C64.6295 54.1067 67.0169 62.7169 75.2007 70.9031C83.3918 79.0893 91.9945 81.4618 94.9051 78.5662C97.8131 75.6581 95.4257 67.048 87.242 58.8618C81.2721 52.8944 75.0792 50.0111 71.0381 50.0111Z" fill="#191D23"/>
<path d="M44.0326 103.309C43.827 103.309 43.6245 103.258 43.4434 103.161C43.2624 103.064 43.1084 102.923 42.9955 102.751C42.8825 102.579 42.8141 102.382 42.7965 102.177C42.7789 101.973 42.8126 101.767 42.8946 101.578L64.0915 52.4087C64.2262 52.1139 64.4711 51.8836 64.7736 51.7672C65.0762 51.6507 65.4123 51.6574 65.7099 51.7858C66.0075 51.9142 66.243 52.1541 66.3659 52.4541C66.4888 52.754 66.4894 53.0902 66.3674 53.3905L46.4051 99.6964L94.3646 79.0201C94.6649 78.8981 95.0011 78.8987 95.301 79.0216C95.601 79.1445 95.8409 79.38 95.9693 79.6776C96.0977 79.9752 96.1044 80.3113 95.9879 80.6139C95.8715 80.9164 95.6412 81.1612 95.3464 81.296L44.5234 103.207C44.3682 103.273 44.2013 103.308 44.0326 103.309Z" fill="#191D23"/>
<path d="M59.2973 96.7287C59.2107 96.7281 59.1243 96.7189 59.0395 96.7014C55.6926 95.9973 51.9416 94.3437 48.1832 91.9191C47.9365 91.7604 47.7542 91.5193 47.6688 91.2386C47.5834 90.958 47.6005 90.6561 47.7171 90.387L51.121 82.4933C51.1975 82.3191 51.3128 82.1648 51.4583 82.0422C51.6037 81.9195 51.7753 81.8319 51.9598 81.7859C52.1444 81.7399 52.3371 81.7369 52.523 81.777C52.709 81.8171 52.8832 81.8993 53.0324 82.0173C58.98 86.7599 65.2795 89.6135 69.8833 89.6482C70.0747 89.6489 70.2633 89.6941 70.4342 89.7803C70.6052 89.8664 70.7537 89.9911 70.8681 90.1445C70.9826 90.2979 71.0598 90.4758 71.0937 90.6642C71.1276 90.8525 71.1172 91.0462 71.0634 91.2299C71.0103 91.4137 70.9187 91.5841 70.7947 91.7298C70.6708 91.8755 70.5173 91.9933 70.3445 92.0753L59.7882 96.627C59.6331 96.6938 59.4661 96.7284 59.2973 96.7287ZM50.4144 90.3944C53.4713 92.2612 56.4735 93.5653 59.1733 94.19L65.4332 91.4902C61.4988 90.4564 57.1057 88.1979 52.7647 84.9427L50.4144 90.3944ZM76.5845 89.2738C76.4979 89.2735 76.4115 89.2643 76.3267 89.2465C70.104 87.9152 62.9318 83.5445 56.6446 77.2548C56.0651 76.6744 55.4989 76.0809 54.9464 75.4748C54.7843 75.2988 54.6767 75.0796 54.6367 74.8438C54.5967 74.6079 54.6259 74.3655 54.7208 74.1459L58.6701 64.9879C58.7561 64.7885 58.893 64.6152 59.0671 64.4854C59.2412 64.3555 59.4464 64.2737 59.662 64.2481C59.8777 64.2225 60.0963 64.254 60.296 64.3394C60.4956 64.4249 60.6693 64.5613 60.7997 64.735C62.337 66.7884 64.0188 68.7296 65.8324 70.5437C72.8707 77.5845 81.2702 82.1636 87.2301 82.2082C87.5143 82.2106 87.7891 82.3107 88.0084 82.4916C88.2277 82.6725 88.3781 82.9233 88.4345 83.2019C88.4909 83.4806 88.4498 83.7701 88.318 84.0221C88.1863 84.274 87.972 84.473 87.711 84.5857L77.0754 89.1722C76.9203 89.2388 76.7533 89.2734 76.5845 89.2738ZM57.314 74.3864C57.666 74.7608 58.023 75.1326 58.3924 75.4996C64.1342 81.2438 70.8552 85.4187 76.463 86.7351L82.713 84.0403C76.8399 82.5007 70.0643 78.2812 64.0796 72.2965C62.681 70.9002 61.3578 69.4305 60.1154 67.8935L57.314 74.3864ZM106.446 75.6037C106.117 75.6037 105.802 75.4736 105.568 75.2417C100.444 70.1198 91.9132 69.6636 84.3394 74.1162C84.1992 74.1991 84.044 74.2535 83.8827 74.2762C83.7214 74.299 83.5573 74.2895 83.3996 74.2485C83.242 74.2075 83.0941 74.1357 82.9643 74.0372C82.8346 73.9388 82.7256 73.8157 82.6436 73.6749C82.5607 73.5347 82.5063 73.3795 82.4836 73.2183C82.4608 73.057 82.4703 72.8928 82.5113 72.7352C82.5523 72.5775 82.6241 72.4296 82.7226 72.2998C82.821 72.1701 82.9442 72.0611 83.0849 71.9791C91.6479 66.9415 101.391 67.5538 107.321 73.4865C107.495 73.6597 107.613 73.8805 107.661 74.1211C107.709 74.3616 107.685 74.611 107.591 74.8376C107.498 75.0643 107.339 75.2581 107.135 75.3945C106.931 75.5308 106.691 75.6036 106.446 75.6037ZM81.6296 63.6541C81.3853 63.6546 81.1463 63.5828 80.9427 63.4479C80.739 63.3129 80.5798 63.1208 80.4849 62.8957C80.3901 62.6705 80.3639 62.4224 80.4097 62.1824C80.4554 61.9424 80.5711 61.7213 80.7421 61.5468C83.3551 58.8792 85.3186 55.6786 86.4194 52.2946C87.7433 48.2213 87.7408 44.0365 86.4144 40.5061C86.3571 40.3538 86.3304 40.1916 86.3358 40.0289C86.3411 39.8662 86.3785 39.7062 86.4457 39.5579C86.5815 39.2585 86.8306 39.0253 87.1383 38.9095C87.4461 38.7938 87.7871 38.8051 88.0866 38.9408C88.386 39.0766 88.6192 39.3257 88.7349 39.6335C90.2596 43.6869 90.277 48.4568 88.7795 53.0581C87.5598 56.8091 85.3955 60.3419 82.5172 63.2798C82.402 63.3986 82.264 63.4929 82.1115 63.5573C81.959 63.6216 81.7951 63.6545 81.6296 63.6541ZM69.9329 67.8687C69.692 67.8708 69.4557 67.8023 69.2532 67.6717C69.0507 67.5411 68.8908 67.3541 68.7933 67.1338C68.6958 66.9134 68.6649 66.6694 68.7044 66.4317C68.7439 66.194 68.8521 65.9731 69.0156 65.7961C76.2449 57.8256 77.058 46.7288 70.8626 40.5309C70.6368 40.2971 70.5119 39.984 70.5147 39.659C70.5175 39.334 70.6479 39.0231 70.8777 38.7932C71.1075 38.5634 71.4184 38.433 71.7435 38.4302C72.0685 38.4274 72.3816 38.5523 72.6154 38.7781C79.7455 45.9107 78.9695 58.5123 70.8502 67.4621C70.7341 67.5901 70.5925 67.6923 70.4345 67.7624C70.2766 67.8324 70.1057 67.8686 69.9329 67.8687Z" fill="#191D23"/>
<path d="M25.7007 77.7748C27.054 77.9334 28.426 78.3161 29.4434 79.2214C30.4047 80.0708 30.946 81.2934 31.6367 82.3761C32.3274 83.4588 33.3353 84.5041 34.614 84.6068C36.6953 84.7748 38.4127 82.4414 40.4847 82.7308C41.502 82.8801 42.3793 83.7388 42.5473 84.7561" stroke="url(#paint0_linear_63_196)" stroke-width="1.62624" stroke-miterlimit="10"/>
<path d="M63.8369 115.537C64.7049 115.024 65.5822 114.483 66.2449 113.717C66.8982 112.952 67.3089 111.897 67.0756 110.917C66.9449 110.367 66.6182 109.881 66.3662 109.359C65.6942 107.959 65.6196 106.288 66.1516 104.832C66.6836 103.376 67.8222 102.153 69.2409 101.519" stroke="url(#paint1_linear_63_196)" stroke-width="1.62624" stroke-miterlimit="10"/>
<path d="M106.667 71.3442C107.367 68.9548 110.046 67.3495 112.482 67.8348C114.106 68.1615 115.44 69.2535 116.84 70.1402C118.231 71.0268 119.93 71.7548 121.507 71.2695C122.095 71.0828 122.627 70.7375 123.187 70.4948C125.688 69.3935 128.955 70.4762 130.299 72.8655" stroke="url(#paint2_linear_63_196)" stroke-width="1.62624" stroke-miterlimit="10"/>
<path d="M36.8067 20.683C35.7054 21.075 34.5854 21.4857 33.6054 22.1203C32.6254 22.755 31.776 23.6696 31.44 24.799C31.2814 25.3216 31.244 25.863 31.2627 26.4043C31.2814 26.899 31.3467 27.403 31.5147 27.8697C32.0374 29.3723 33.5027 30.427 35.0614 30.7443C36.62 31.0616 38.2627 30.7163 39.728 30.091C40.6614 29.6897 41.66 28.971 41.5947 27.963C41.5574 27.3656 41.1187 26.8523 40.596 26.5723C40.064 26.3016 39.4574 26.227 38.86 26.2177C38.3374 26.2083 37.7867 26.2363 37.32 26.4697C36.76 26.7497 36.3587 27.2817 36.088 27.8417C35.7054 28.6443 35.5654 29.5403 35.4907 30.427C35.388 31.6776 35.4627 33.003 36.144 34.0483C36.5734 34.711 37.2267 35.2056 37.9454 35.5323C40.2974 36.6336 43.3774 35.831 44.8987 33.731" stroke="url(#paint3_linear_63_196)" stroke-width="1.62624" stroke-miterlimit="10"/>
<path d="M41.781 72.4362C43.1933 72.4362 44.3383 71.2912 44.3383 69.8789C44.3383 68.4665 43.1933 67.3215 41.781 67.3215C40.3686 67.3215 39.2236 68.4665 39.2236 69.8789C39.2236 71.2912 40.3686 72.4362 41.781 72.4362Z" fill="url(#paint4_linear_63_196)"/>
<path d="M99.323 24.5561C100.735 24.5561 101.88 23.4111 101.88 21.9987C101.88 20.5864 100.735 19.4414 99.323 19.4414C97.9106 19.4414 96.7656 20.5864 96.7656 21.9987C96.7656 23.4111 97.9106 24.5561 99.323 24.5561Z" fill="url(#paint5_linear_63_196)"/>
<path d="M106.658 96.5817C108.07 96.5817 109.215 95.4367 109.215 94.0244C109.215 92.612 108.07 91.467 106.658 91.467C105.246 91.467 104.101 92.612 104.101 94.0244C104.101 95.4367 105.246 96.5817 106.658 96.5817Z" fill="url(#paint6_linear_63_196)"/>
<path d="M122.898 55.9256C124.635 55.9256 126.044 54.5173 126.044 52.7802C126.044 51.0431 124.635 49.6349 122.898 49.6349C121.161 49.6349 119.753 51.0431 119.753 52.7802C119.753 54.5173 121.161 55.9256 122.898 55.9256Z" fill="url(#paint7_linear_63_196)"/>
<path d="M61.7456 48.3374C63.9054 48.3374 65.6563 46.5866 65.6563 44.4268C65.6563 42.267 63.9054 40.5161 61.7456 40.5161C59.5858 40.5161 57.835 42.267 57.835 44.4268C57.835 46.5866 59.5858 48.3374 61.7456 48.3374Z" fill="url(#paint8_linear_63_196)"/>
<path d="M66.5344 16.2403C68.4416 16.2403 69.9877 14.6942 69.9877 12.787C69.9877 10.8797 68.4416 9.33362 66.5344 9.33362C64.6272 9.33362 63.0811 10.8797 63.0811 12.787C63.0811 14.6942 64.6272 16.2403 66.5344 16.2403Z" fill="url(#paint9_linear_63_196)"/>
<path d="M92.1726 76.9442C93.3169 76.9442 94.2446 76.0165 94.2446 74.8722C94.2446 73.7278 93.3169 72.8002 92.1726 72.8002C91.0283 72.8002 90.1006 73.7278 90.1006 74.8722C90.1006 76.0165 91.0283 76.9442 92.1726 76.9442Z" fill="url(#paint10_linear_63_196)"/>
<path d="M79.2049 62.8256L73.6235 64.2816C73.0355 64.431 72.8302 65.1683 73.2689 65.5976L77.3942 69.723C77.8235 70.1523 78.5609 69.9563 78.7102 69.3683L80.1662 63.787C80.3155 63.2083 79.7929 62.6763 79.2049 62.8256Z" stroke="url(#paint11_linear_63_196)" stroke-width="1.62624" stroke-miterlimit="10"/>
<path d="M45.9442 43.3724L46.8868 46.2751C47.0175 46.6671 47.3815 46.9284 47.7922 46.9284H50.8442C51.4322 46.9284 51.6842 47.6844 51.1988 48.0297L48.7255 49.8217C48.3895 50.0644 48.2495 50.4937 48.3802 50.8857L49.3228 53.7884C49.5095 54.3484 48.8655 54.8151 48.3802 54.4697L45.9068 52.6777C45.5708 52.4351 45.1228 52.4351 44.7868 52.6777L42.3135 54.4697C41.8375 54.8151 41.1935 54.3484 41.3708 53.7884L42.3135 50.8857C42.4442 50.4937 42.3042 50.0644 41.9682 49.8217L39.4948 48.0297C39.0188 47.6844 39.2615 46.9284 39.8495 46.9284H42.9015C43.3122 46.9284 43.6762 46.6671 43.8068 46.2751L44.7495 43.3724C44.9642 42.8124 45.7575 42.8124 45.9442 43.3724Z" fill="url(#paint12_linear_63_196)"/>
<path d="M18.0181 125.134C17.0567 124.322 16.9914 122.894 17.0007 121.643C17.0101 120.766 17.0101 119.888 17.0194 119.011C17.0194 118.554 17.0287 118.087 17.2061 117.658C17.6541 116.584 18.9981 116.239 20.1554 116.202C21.4341 116.164 22.7221 116.342 23.9541 116.724C25.2981 117.144 26.9594 117.742 27.9394 116.724C28.3967 116.258 28.5181 115.576 28.6674 114.942C28.9381 113.803 29.3581 112.655 30.2074 111.852C31.0567 111.05 32.4194 110.704 33.4181 111.302" stroke="url(#paint13_linear_63_196)" stroke-width="1.62624" stroke-miterlimit="10"/>
<path d="M81.7007 105.568C81.906 104.635 82.662 103.897 83.53 103.477C84.398 103.057 85.3594 102.917 86.302 102.796C87.4687 102.647 88.7193 102.525 89.7833 103.039C91.6687 103.944 92.154 106.641 91.1553 108.48C90.1567 110.319 88.1127 111.373 86.0593 111.803C85.7047 111.877 85.2753 111.915 85.0233 111.663C84.8647 111.504 84.818 111.271 84.7714 111.047C84.622 110.281 84.4913 109.423 84.9487 108.788C85.3873 108.181 86.1994 108.004 86.9367 107.883C88.906 107.547 91.0433 107.239 92.8167 108.163C95.0193 109.32 95.9154 112.437 94.646 114.584" stroke="url(#paint14_linear_63_196)" stroke-width="1.62624" stroke-miterlimit="10"/>
<defs>
<linearGradient id="paint0_linear_63_196" x1="25.6055" y1="81.1945" x2="43.3491" y2="81.1945" gradientUnits="userSpaceOnUse">
<stop stop-color="#BF35D1"/>
<stop offset="1" stop-color="#FF5160"/>
</linearGradient>
<linearGradient id="paint1_linear_63_196" x1="63.4178" y1="108.509" x2="69.5666" y2="108.509" gradientUnits="userSpaceOnUse">
<stop stop-color="#1BBE6C"/>
<stop offset="1" stop-color="#05BBDD"/>
</linearGradient>
<linearGradient id="paint2_linear_63_196" x1="105.883" y1="70.0935" x2="131" y2="70.0935" gradientUnits="userSpaceOnUse">
<stop stop-color="#1BBE6C"/>
<stop offset="1" stop-color="#05BBDD"/>
</linearGradient>
<linearGradient id="paint3_linear_63_196" x1="30.4423" y1="28.3867" x2="45.5502" y2="28.3867" gradientUnits="userSpaceOnUse">
<stop stop-color="#BF35D1"/>
<stop offset="1" stop-color="#FF5160"/>
</linearGradient>
<linearGradient id="paint4_linear_63_196" x1="39.2292" y1="69.8761" x2="44.3364" y2="69.8761" gradientUnits="userSpaceOnUse">
<stop stop-color="#FB8797"/>
<stop offset="1" stop-color="#FBD44D"/>
</linearGradient>
<linearGradient id="paint5_linear_63_196" x1="96.7703" y1="21.9978" x2="101.877" y2="21.9978" gradientUnits="userSpaceOnUse">
<stop stop-color="#FB8797"/>
<stop offset="1" stop-color="#FBD44D"/>
</linearGradient>
<linearGradient id="paint6_linear_63_196" x1="104.108" y1="94.0253" x2="109.214" y2="94.0253" gradientUnits="userSpaceOnUse">
<stop stop-color="#FB8797"/>
<stop offset="1" stop-color="#FBD44D"/>
</linearGradient>
<linearGradient id="paint7_linear_63_196" x1="119.755" y1="52.7756" x2="126.043" y2="52.7756" gradientUnits="userSpaceOnUse">
<stop stop-color="#367BF2"/>
<stop offset="1" stop-color="#5DC6F3"/>
</linearGradient>
<linearGradient id="paint8_linear_63_196" x1="57.8378" y1="44.423" x2="65.6572" y2="44.423" gradientUnits="userSpaceOnUse">
<stop stop-color="#BF35D1"/>
<stop offset="1" stop-color="#FF5160"/>
</linearGradient>
<linearGradient id="paint9_linear_63_196" x1="63.0811" y1="12.787" x2="69.9877" y2="12.787" gradientUnits="userSpaceOnUse">
<stop stop-color="#367BF2"/>
<stop offset="1" stop-color="#5DC6F3"/>
</linearGradient>
<linearGradient id="paint10_linear_63_196" x1="90.1034" y1="74.8694" x2="94.2455" y2="74.8694" gradientUnits="userSpaceOnUse">
<stop stop-color="#BF35D1"/>
<stop offset="1" stop-color="#FF5160"/>
</linearGradient>
<linearGradient id="paint11_linear_63_196" x1="72.2179" y1="66.3816" x2="81.0071" y2="66.3816" gradientUnits="userSpaceOnUse">
<stop stop-color="#1BBE6C"/>
<stop offset="1" stop-color="#05BBDD"/>
</linearGradient>
<linearGradient id="paint12_linear_63_196" x1="39.2652" y1="48.7811" x2="51.4555" y2="48.7811" gradientUnits="userSpaceOnUse">
<stop stop-color="#FB8797"/>
<stop offset="1" stop-color="#FBD44D"/>
</linearGradient>
<linearGradient id="paint13_linear_63_196" x1="16.1859" y1="117.967" x2="33.8269" y2="117.967" gradientUnits="userSpaceOnUse">
<stop stop-color="#5DC6F3"/>
<stop offset="1" stop-color="#367BF2"/>
</linearGradient>
<linearGradient id="paint14_linear_63_196" x1="80.9092" y1="108.42" x2="96.046" y2="108.42" gradientUnits="userSpaceOnUse">
<stop stop-color="#BF35D1"/>
<stop offset="1" stop-color="#FF5160"/>
</linearGradient>
</defs>
</svg>
