<svg width="40" height="41" viewBox="0 0 40 41" fill="none" xmlns="http://www.w3.org/2000/svg">
<rect y="0.161133" width="40" height="40" rx="20" fill="#E4FFED"/>
<g clip-path="url(#clip0_150_6823)">
<path d="M28.7217 16.4097V28.4829C28.7217 28.633 28.6921 28.7815 28.6347 28.9202C28.5773 29.0588 28.4931 29.1848 28.387 29.2909C28.2809 29.397 28.155 29.4811 28.0164 29.5385C27.8777 29.596 27.7292 29.6255 27.5791 29.6255H12.4209C12.2709 29.6255 12.1223 29.596 11.9836 29.5385C11.845 29.4811 11.7191 29.397 11.613 29.2909C11.5069 29.1848 11.4227 29.0588 11.3653 28.9202C11.3079 28.7815 11.2783 28.633 11.2783 28.4829V16.4097H28.7217Z" fill="#34DC5E"/>
<path d="M27.0078 16.4097V25.3599C27.0078 26.1881 26.6788 26.9825 26.0931 27.5682C25.5074 28.1539 24.713 28.4829 23.8848 28.4829H11.2783C11.2783 28.7859 11.3987 29.0766 11.613 29.2908C11.8272 29.5051 12.1179 29.6255 12.4209 29.6255H27.5791C27.7291 29.6255 27.8777 29.5959 28.0163 29.5385C28.155 29.4811 28.2809 29.3969 28.387 29.2908C28.4931 29.1847 28.5773 29.0588 28.6347 28.9202C28.6921 28.7815 28.7217 28.633 28.7217 28.4829V16.4097H27.0078Z" fill="#2BA84A"/>
<path d="M28.8926 13.5337H11.1064C10.7909 13.5337 10.5352 13.7895 10.5352 14.105V15.8383C10.5352 16.1538 10.7909 16.4096 11.1064 16.4096H28.8926C29.2081 16.4096 29.4639 16.1538 29.4639 15.8383V14.105C29.4639 13.7895 29.2081 13.5337 28.8926 13.5337Z" fill="#FFC20C"/>
<path d="M28.8926 13.5338H28.3213C28.3213 13.7614 28.2765 13.9868 28.1894 14.1971C28.1022 14.4074 27.9746 14.5985 27.8136 14.7595C27.6527 14.9204 27.4616 15.0481 27.2513 15.1352C27.041 15.2223 26.8156 15.2671 26.588 15.2671H25.5642C25.4787 15.2671 25.394 15.2503 25.315 15.2174C25.236 15.1846 25.1643 15.1365 25.104 15.0759C25.0437 15.0152 24.9959 14.9433 24.9635 14.8641C24.9311 14.785 24.9146 14.7002 24.9151 14.6147C24.9204 13.6201 24.9233 11.8398 24.9233 11.8398C24.9233 11.7505 24.9024 11.6626 24.8622 11.5829C24.8221 11.5032 24.7639 11.434 24.6922 11.3809C24.6205 11.3277 24.5374 11.2921 24.4495 11.2769C24.3615 11.2617 24.2713 11.2673 24.1859 11.2932L20.9113 12.2888C21.0976 12.5057 21.1998 12.7824 21.1992 13.0684V13.1994L21.2937 13.1366C21.3357 13.1086 21.3872 13.0984 21.4368 13.1084C21.4864 13.1183 21.5299 13.1475 21.558 13.1895L22.9415 15.2671H10.5352V15.8384C10.5352 15.9899 10.5953 16.1352 10.7025 16.2424C10.8096 16.3495 10.9549 16.4097 11.1064 16.4097H28.8926C29.0441 16.4097 29.1894 16.3495 29.2965 16.2424C29.4037 16.1352 29.4639 15.9899 29.4639 15.8384V14.1051C29.4639 13.9536 29.4037 13.8083 29.2965 13.7012C29.1894 13.594 29.0441 13.5338 28.8926 13.5338Z" fill="#FFC20C"/>
<path d="M18.4961 16.4097H21.5049V29.6255H18.4961V16.4097Z" fill="#FFC20C"/>
<path d="M18.4961 28.4703H21.5049V29.6254H18.4961V28.4703ZM18.4961 13.5337V17.8557L19.159 16.8603C19.2513 16.7216 19.3764 16.608 19.5232 16.5293C19.67 16.4507 19.834 16.4096 20.0006 16.4096C20.1671 16.4096 20.3311 16.4507 20.4779 16.5293C20.6248 16.608 20.7499 16.7217 20.8422 16.8603L21.5049 17.8556V13.5337H18.4961Z" fill="#FFC20C"/>
<path d="M18.4956 17.8296L17.6234 19.1655C17.6054 19.1925 17.5809 19.2144 17.5521 19.2292C17.5233 19.244 17.4912 19.2512 17.4589 19.2502C17.4265 19.2492 17.395 19.2399 17.3672 19.2233C17.3394 19.2067 17.3163 19.1833 17.3001 19.1552L16.8541 18.3848C16.8394 18.3595 16.8191 18.338 16.7948 18.3218C16.7705 18.3056 16.7429 18.2952 16.7139 18.2914L15.8311 18.1772C15.799 18.1731 15.7684 18.1608 15.7424 18.1416C15.7163 18.1223 15.6956 18.0968 15.6822 18.0673C15.6687 18.0378 15.6631 18.0054 15.6657 17.9731C15.6683 17.9408 15.6791 17.9097 15.697 17.8828L16.6782 16.4089L18.4963 17.2834L18.4956 17.8296Z" fill="#2BA84A"/>
<path d="M20.3683 14.4721L20.3416 14.5125L20 15.0251L19.947 15.1047L17.6234 18.5942C17.6054 18.6211 17.5809 18.643 17.5521 18.6578C17.5233 18.6726 17.4912 18.6799 17.4589 18.6788C17.4265 18.6778 17.395 18.6686 17.3672 18.6519C17.3394 18.6353 17.3163 18.6119 17.3001 18.5839L16.8541 17.8134C16.8394 17.7882 16.8191 17.7666 16.7948 17.7505C16.7705 17.7343 16.7429 17.7239 16.7139 17.7201L15.8311 17.6058C15.799 17.6017 15.7684 17.5894 15.7424 17.5702C15.7163 17.551 15.6956 17.5254 15.6822 17.4959C15.6687 17.4664 15.6631 17.434 15.6657 17.4017C15.6683 17.3695 15.6791 17.3384 15.697 17.3114L17.0281 15.3119L18.4415 13.1894C18.4695 13.1473 18.5131 13.1181 18.5627 13.1082C18.6123 13.0983 18.6637 13.1084 18.7058 13.1364L18.8003 13.1993L19.287 13.5234L20 13.9979L20.3153 14.2078C20.3572 14.236 20.3863 14.2795 20.3962 14.3291C20.4062 14.3786 20.3961 14.43 20.3683 14.4721Z" fill="#61E482"/>
<path d="M24.1694 18.1772L23.2865 18.2915C23.2576 18.2953 23.2299 18.3057 23.2056 18.3219C23.1813 18.338 23.1611 18.3596 23.1464 18.3848L22.7004 19.1553C22.6842 19.1833 22.6611 19.2067 22.6333 19.2233C22.6055 19.24 22.5739 19.2492 22.5416 19.2503C22.5092 19.2513 22.4771 19.244 22.4483 19.2292C22.4196 19.2144 22.395 19.1925 22.3771 19.1656L21.5049 17.8557V16.9977L20.9336 16.4097H23.3227L24.3034 17.8828C24.3214 17.9098 24.3322 17.9409 24.3348 17.9732C24.3374 18.0054 24.3317 18.0379 24.3183 18.0673C24.3049 18.0968 24.2842 18.1224 24.2581 18.1416C24.232 18.1608 24.2015 18.1731 24.1694 18.1772Z" fill="#2BA84A"/>
<path d="M21.5048 16.4097H21.1133L21.5048 16.9977V16.4097Z" fill="#FFC20C"/>
<path d="M24.1685 17.6058L23.2857 17.7201C23.2567 17.7239 23.229 17.7343 23.2047 17.7505C23.1804 17.7666 23.1602 17.7882 23.1455 17.8134L22.6995 18.5839C22.6833 18.6119 22.6602 18.6353 22.6324 18.6519C22.6046 18.6686 22.5731 18.6778 22.5407 18.6788C22.5083 18.6799 22.4762 18.6726 22.4475 18.6578C22.4187 18.643 22.3941 18.6211 22.3762 18.5942L20.0525 15.1047L19.9996 15.0251L19.658 14.5125L19.6313 14.4721C19.6035 14.43 19.5934 14.3786 19.6033 14.3291C19.6133 14.2795 19.6423 14.236 19.6843 14.2078L19.9996 13.9979L20.7126 13.5234L21.1993 13.1993L21.2938 13.1364C21.3358 13.1084 21.3873 13.0983 21.4369 13.1082C21.4864 13.1181 21.53 13.1473 21.5581 13.1894L22.9714 15.3119L24.3026 17.3114C24.3205 17.3384 24.3313 17.3695 24.3339 17.4017C24.3365 17.434 24.3308 17.4664 24.3174 17.4959C24.304 17.5254 24.2833 17.551 24.2572 17.5702C24.2312 17.5894 24.2006 17.6017 24.1685 17.6058Z" fill="#61E482"/>
<path d="M19.0881 12.2888C18.9018 12.5057 18.7996 12.7824 18.8002 13.0684V13.1994L18.7058 13.1366C18.6637 13.1086 18.6122 13.0984 18.5626 13.1084C18.5131 13.1183 18.4695 13.1475 18.4414 13.1895L17.0281 15.3121L15.8135 15.6815C15.7281 15.7074 15.6379 15.713 15.55 15.6978C15.4621 15.6826 15.3789 15.647 15.3073 15.5939C15.2356 15.5407 15.1773 15.4715 15.1372 15.3919C15.0971 15.3122 15.0762 15.2242 15.0762 15.135V11.8398C15.0762 11.7505 15.0971 11.6626 15.1372 11.5829C15.1773 11.5032 15.2356 11.434 15.3073 11.3809C15.3789 11.3277 15.4621 11.2921 15.55 11.2769C15.6379 11.2617 15.7281 11.2673 15.8135 11.2932L19.0881 12.2888Z" fill="#FFC20C"/>
<path d="M20.7131 12.7828V14.192L20.3848 14.2918L20.0002 14.4087L19.6585 14.5127L19.0884 14.6859L17.0283 15.3121L18.4417 13.1896C18.4697 13.1475 18.5133 13.1183 18.5629 13.1084C18.6125 13.0984 18.6639 13.1086 18.706 13.1366L18.8005 13.1995V13.0684C18.7998 12.7824 18.902 12.5058 19.0884 12.2888L20.0002 12.5661L20.7131 12.7828Z" fill="#19BD42"/>
<path d="M23.1168 15.5297L20.3406 14.6859L19.7704 14.5127L19.4288 14.4087L19.0441 14.2918L18.7158 14.192V12.7828L19.4288 12.5661L20.3406 12.2888C20.5269 12.5058 20.6291 12.7824 20.6285 13.0684V13.1995L20.7229 13.1366C20.8105 13.0783 21.5003 13.102 21.5586 13.1896L23.1168 15.5297Z" fill="#19BD42"/>
<path d="M21.2002 13.0683V13.9062C21.2001 14.2152 21.0809 14.5123 20.8673 14.7356C20.6536 14.9588 20.3621 15.0911 20.0534 15.1048H19.9475C19.6388 15.0911 19.3473 14.9588 19.1337 14.7356C18.9201 14.5123 18.8008 14.2152 18.8008 13.9062V13.0683C18.8008 12.831 18.8712 12.5991 19.003 12.4018C19.1349 12.2045 19.3223 12.0507 19.5415 11.9599C19.7608 11.8691 20.002 11.8454 20.2348 11.8917C20.4675 11.9381 20.6813 12.0523 20.849 12.2202C20.8711 12.2423 20.8921 12.2651 20.9123 12.2887C21.0986 12.5057 21.2008 12.7823 21.2002 13.0683Z" fill="#19BD42"/>
<path d="M19.0859 14.1154L15.8136 15.1104C15.7282 15.1364 15.638 15.142 15.55 15.1267C15.4621 15.1115 15.379 15.0759 15.3073 15.0228C15.2356 14.9696 15.1773 14.9004 15.1372 14.8207C15.0971 14.741 15.0762 14.653 15.0762 14.5638V11.2685C15.0762 11.1793 15.0971 11.0913 15.1372 11.0116C15.1773 10.9319 15.2356 10.8627 15.3073 10.8096C15.379 10.7565 15.4621 10.7209 15.55 10.7056C15.638 10.6904 15.7282 10.696 15.8136 10.722L19.0869 11.7172L20.7128 12.2116" fill="#61E482"/>
<path d="M19.2871 13.6208L24.1864 15.1104C24.2718 15.1364 24.362 15.142 24.45 15.1267C24.5379 15.1115 24.621 15.0759 24.6927 15.0228C24.7644 14.9696 24.8227 14.9004 24.8628 14.8207C24.9029 14.741 24.9238 14.653 24.9238 14.5638V11.2685C24.9238 11.1793 24.9029 11.0913 24.8628 11.0116C24.8227 10.9319 24.7644 10.8627 24.6927 10.8096C24.621 10.7565 24.5379 10.7209 24.45 10.7056C24.3621 10.6904 24.2718 10.696 24.1864 10.722L19.2871 12.2115V13.6208Z" fill="#61E482"/>
<path d="M22.714 13.2017H21.2C21.1243 13.2017 21.0516 13.1716 20.998 13.118C20.9445 13.0644 20.9144 12.9918 20.9144 12.916C20.9144 12.8403 20.9445 12.7676 20.998 12.714C21.0516 12.6605 21.1243 12.6304 21.2 12.6304H22.714C22.7898 12.6304 22.8624 12.6605 22.916 12.714C22.9696 12.7676 22.9997 12.8403 22.9997 12.916C22.9997 12.9918 22.9696 13.0644 22.916 13.118C22.8624 13.1716 22.7898 13.2017 22.714 13.2017ZM18.8006 13.2017H17.2866C17.2109 13.2017 17.1382 13.1716 17.0846 13.118C17.0311 13.0644 17.001 12.9918 17.001 12.916C17.001 12.8403 17.0311 12.7676 17.0846 12.714C17.1382 12.6605 17.2109 12.6304 17.2866 12.6304H18.8006C18.8764 12.6304 18.949 12.6605 19.0026 12.714C19.0562 12.7676 19.0863 12.8403 19.0863 12.916C19.0863 12.9918 19.0562 13.0644 19.0026 13.118C18.949 13.1716 18.8764 13.2017 18.8006 13.2017Z" fill="#19BD42"/>
<path d="M21.2002 12.4971C21.2002 11.8345 20.6631 11.2974 20.0005 11.2974C19.3379 11.2974 18.8008 11.8345 18.8008 12.4971V13.335C18.8008 13.9975 19.3379 14.5347 20.0005 14.5347C20.6631 14.5347 21.2002 13.9975 21.2002 13.335V12.4971Z" fill="#34DC5E"/>
<path d="M20.5128 11.4126C20.5888 11.573 20.6282 11.7483 20.628 11.9258V12.7637C20.628 13.0819 20.5016 13.387 20.2766 13.612C20.0516 13.837 19.7465 13.9634 19.4283 13.9634C19.2508 13.9636 19.0754 13.9243 18.915 13.8482C19.0122 14.0536 19.1658 14.2272 19.3578 14.3487C19.5498 14.4702 19.7723 14.5347 19.9996 14.5347C20.3178 14.5347 20.6229 14.4083 20.8479 14.1833C21.0729 13.9583 21.1993 13.6532 21.1993 13.335V12.4971C21.1993 12.2699 21.1348 12.0473 21.0133 11.8553C20.8917 11.6633 20.7182 11.5098 20.5128 11.4126Z" fill="#2BA84A"/>
<path d="M28.8931 13.2483H25.2095V11.2686C25.2095 11.1347 25.1781 11.0027 25.1179 10.8831C25.0577 10.7636 24.9703 10.6598 24.8628 10.5801C24.7553 10.5004 24.6305 10.447 24.4986 10.4242C24.3667 10.4013 24.2313 10.4097 24.1033 10.4487L20.9936 11.3942C20.7212 11.1481 20.3671 11.0119 20 11.0119C19.6329 11.0119 19.2788 11.1481 19.0064 11.3942L15.8967 10.4487C15.7686 10.4098 15.6332 10.4014 15.5013 10.4242C15.3694 10.447 15.2447 10.5005 15.1372 10.5802C15.0297 10.6599 14.9423 10.7636 14.8821 10.8832C14.8219 11.0027 14.7905 11.1347 14.7905 11.2686V13.2483H11.1069C10.8797 13.2486 10.6619 13.3389 10.5013 13.4996C10.3406 13.6602 10.2503 13.878 10.25 14.1052V15.8385C10.2503 16.0459 10.3257 16.2462 10.4622 16.4023C10.5987 16.5584 10.7872 16.6597 10.9927 16.6876V28.4831C10.9931 28.8617 11.1437 29.2247 11.4115 29.4925C11.6792 29.7602 12.0422 29.9109 12.4209 29.9113H27.5791C27.9578 29.9109 28.3208 29.7602 28.5885 29.4925C28.8563 29.2247 29.0069 28.8617 29.0073 28.4831V16.6876C29.2128 16.6597 29.4013 16.5583 29.5378 16.4022C29.6743 16.2461 29.7497 16.0459 29.75 15.8385V14.1052C29.7497 13.878 29.6594 13.6602 29.4987 13.4995C29.3381 13.3389 29.1203 13.2485 28.8931 13.2483ZM21.4213 14.5683C21.4572 14.5792 21.4949 14.5829 21.5322 14.5793C21.5695 14.5756 21.6058 14.5647 21.6389 14.547C21.672 14.5293 21.7013 14.5053 21.7251 14.4763C21.7489 14.4474 21.7668 14.414 21.7777 14.3781C21.7886 14.3422 21.7923 14.3045 21.7887 14.2672C21.785 14.2298 21.7741 14.1936 21.7564 14.1605C21.7388 14.1274 21.7147 14.0981 21.6858 14.0743C21.6568 14.0505 21.6234 14.0326 21.5875 14.0217L21.3516 13.95C21.4398 13.757 21.4855 13.5473 21.4854 13.3352V13.2018H22.7137C22.7895 13.2018 22.8621 13.1717 22.9157 13.1182C22.9692 13.0646 22.9993 12.9919 22.9993 12.9162C22.9993 12.8404 22.9692 12.7678 22.9157 12.7142C22.8621 12.6606 22.7895 12.6305 22.7137 12.6305H21.4854V12.4972C21.4855 12.2851 21.4399 12.0754 21.3516 11.8825L24.2695 10.9952C24.3122 10.9823 24.3573 10.9795 24.4013 10.9871C24.4452 10.9947 24.4868 11.0125 24.5226 11.0391C24.5585 11.0656 24.5876 11.1002 24.6077 11.1401C24.6277 11.1799 24.6382 11.2239 24.6382 11.2686V13.488C24.6328 13.5184 24.6328 13.5495 24.6382 13.5798V14.5638C24.6382 14.6084 24.6277 14.6524 24.6077 14.6923C24.5876 14.7321 24.5585 14.7667 24.5226 14.7933C24.4868 14.8199 24.4452 14.8377 24.4013 14.8453C24.3573 14.8529 24.3122 14.8501 24.2695 14.8371L22.5781 14.3229C22.5689 14.3201 22.5596 14.3178 22.5502 14.3159C22.5475 14.3154 22.5447 14.3151 22.542 14.3146C22.5355 14.3135 22.5291 14.3126 22.5226 14.3118C22.5187 14.3115 22.5149 14.3115 22.511 14.3112C22.5055 14.3109 22.5001 14.3105 22.4946 14.3105C22.4909 14.3105 22.4872 14.3108 22.4834 14.311C22.4778 14.3112 22.4722 14.3114 22.4666 14.3119C22.4634 14.3122 22.4602 14.3128 22.457 14.3133C22.4509 14.3141 22.4449 14.3149 22.4388 14.3161C22.4363 14.3166 22.4338 14.3173 22.4313 14.3179C22.4247 14.3194 22.4182 14.321 22.4118 14.3229C22.4097 14.3235 22.4076 14.3244 22.4055 14.3251C22.3988 14.3272 22.3922 14.3296 22.3857 14.3322C22.3833 14.3333 22.381 14.3345 22.3786 14.3355C22.3726 14.3382 22.3666 14.3409 22.3607 14.344C22.3525 14.3484 22.3445 14.3531 22.3368 14.3583L22.3367 14.3584C22.3359 14.3589 22.3352 14.3595 22.3344 14.36C22.3273 14.3648 22.3205 14.3699 22.3139 14.3753C22.3113 14.3773 22.309 14.3796 22.3066 14.3818C22.302 14.3858 22.2974 14.3898 22.2931 14.3941C22.2901 14.397 22.2875 14.4001 22.2848 14.4031C22.2812 14.4069 22.2776 14.4107 22.2743 14.4148C22.2715 14.4182 22.269 14.4218 22.2663 14.4254C22.2634 14.4293 22.2604 14.4332 22.2576 14.4372C22.255 14.4412 22.2527 14.4453 22.2502 14.4494C22.2479 14.4533 22.2454 14.4571 22.2432 14.4611C22.2406 14.4661 22.2383 14.4712 22.236 14.4763C22.2344 14.4797 22.2327 14.483 22.2312 14.4865C22.2281 14.4942 22.2252 14.502 22.2228 14.51C22.2224 14.511 22.222 14.512 22.2217 14.513L22.2216 14.5132C22.2189 14.5221 22.2166 14.5312 22.2148 14.5404C22.2138 14.5456 22.2132 14.5509 22.2125 14.5561C22.2119 14.56 22.2112 14.5639 22.2107 14.5679C22.2102 14.5737 22.21 14.5795 22.2098 14.5854C22.2097 14.5888 22.2094 14.5922 22.2094 14.5957C22.2094 14.6012 22.2097 14.6067 22.21 14.6122C22.2102 14.616 22.2103 14.6198 22.2107 14.6237C22.2112 14.6285 22.212 14.6333 22.2127 14.6381C22.2133 14.6425 22.2139 14.647 22.2148 14.6515C22.2155 14.6556 22.2167 14.6596 22.2177 14.6636C22.2189 14.6687 22.22 14.6737 22.2216 14.6787C22.2227 14.6823 22.224 14.6859 22.2253 14.6895C22.2271 14.6947 22.2288 14.6999 22.2309 14.705C22.2326 14.709 22.2346 14.7129 22.2364 14.7168C22.2385 14.7212 22.2404 14.7258 22.2427 14.7301C22.2471 14.7384 22.2519 14.7465 22.2571 14.7543L22.2572 14.7544L23.4601 16.5609C23.4632 16.5659 23.4664 16.5708 23.4698 16.5756L23.9804 17.3423L23.1562 17.4492C23.1127 17.4548 23.0711 17.4704 23.0346 17.4947C22.9981 17.519 22.9677 17.5514 22.9457 17.5893L22.5293 18.3085L21.7419 17.1261L21.7407 17.1242L20.3432 15.0253L20.55 14.7146C20.713 14.6494 20.8632 14.5558 20.9935 14.4382L21.4213 14.5683ZM19.0859 12.4972C19.0859 12.2548 19.1822 12.0223 19.3537 11.8509C19.5251 11.6795 19.7576 11.5832 20 11.5832C20.2424 11.5832 20.4749 11.6795 20.6463 11.8509C20.8178 12.0223 20.9141 12.2548 20.9141 12.4972V13.3351C20.9138 13.5212 20.8569 13.7027 20.7509 13.8556C20.645 14.0085 20.4949 14.1255 20.3208 14.1909C20.2932 14.1956 20.2666 14.2042 20.2415 14.2166C20.1059 14.2538 19.9635 14.2593 19.8254 14.2324C19.6874 14.2056 19.5573 14.1473 19.4455 14.062C19.3337 13.9767 19.243 13.8667 19.1807 13.7407C19.1183 13.6146 19.0859 13.4758 19.0859 13.3352V12.4972ZM15.3618 11.2686C15.3618 11.2239 15.3723 11.1799 15.3923 11.1401C15.4124 11.1002 15.4415 11.0656 15.4774 11.0391C15.5132 11.0125 15.5548 10.9947 15.5987 10.9871C15.6427 10.9795 15.6878 10.9823 15.7305 10.9952L18.6484 11.8825C18.5602 12.0754 18.5146 12.2851 18.5147 12.4972V12.6305H17.2863C17.2106 12.6305 17.1379 12.6606 17.0844 12.7142C17.0308 12.7678 17.0007 12.8404 17.0007 12.9162C17.0007 12.9919 17.0308 13.0646 17.0844 13.1182C17.1379 13.1717 17.2106 13.2018 17.2863 13.2018H18.5147V13.3351C18.5146 13.5473 18.5602 13.757 18.6484 13.95L17.4225 14.3227L17.4222 14.3228L15.7306 14.8371C15.6879 14.8501 15.6427 14.8529 15.5988 14.8453C15.5548 14.8377 15.5132 14.8199 15.4774 14.7933C15.4416 14.7667 15.4124 14.7321 15.3924 14.6923C15.3723 14.6524 15.3619 14.6084 15.3619 14.5638L15.3618 11.2686ZM11.1069 16.1241C11.0312 16.124 10.9586 16.0939 10.905 16.0404C10.8515 15.9868 10.8214 15.9142 10.8213 15.8385V14.1052C10.8214 14.0295 10.8515 13.9569 10.905 13.9033C10.9586 13.8498 11.0312 13.8196 11.1069 13.8195H14.7905V14.5638C14.7907 14.7907 14.8807 15.0082 15.0408 15.1689C15.2009 15.3296 15.4181 15.4204 15.6449 15.4215C15.7303 15.4214 15.8151 15.4087 15.8967 15.3837L16.8255 15.1013L16.1445 16.1241H11.1069ZM18.21 29.34H12.4209C12.1937 29.3397 11.9759 29.2493 11.8152 29.0887C11.6546 28.928 11.5642 28.7102 11.564 28.483V16.6954H15.7641L15.2894 17.4083C15.2625 17.4487 15.2463 17.4953 15.2425 17.5437C15.2386 17.5921 15.2471 17.6407 15.2672 17.6849C15.2874 17.7291 15.3184 17.7675 15.3575 17.7963C15.3966 17.8252 15.4423 17.8436 15.4905 17.8498L16.6305 17.9976L17.2065 18.9925C17.2309 19.0345 17.2655 19.0697 17.3072 19.0946C17.3489 19.1195 17.3963 19.1334 17.4448 19.1349C17.4478 19.135 17.4508 19.135 17.4538 19.135C17.5009 19.135 17.5472 19.1234 17.5886 19.1012C17.6301 19.0789 17.6655 19.0468 17.6915 19.0077L18.2106 18.228L18.21 29.34ZM18.2587 17.125L17.4707 18.3085L17.0543 17.5893C17.0323 17.5514 17.0019 17.519 16.9654 17.4947C16.9289 17.4704 16.8873 17.4548 16.8438 17.4492L16.0196 17.3423L16.5338 16.5702L16.5349 16.5686L17.6861 14.8397L19.0065 14.4382C19.2284 14.6387 19.5057 14.7673 19.8021 14.8071L19.7824 14.8367C19.7669 14.8547 19.7537 14.8745 19.7431 14.8957L18.2601 17.123L18.2587 17.125ZM28.436 28.483C28.4358 28.7102 28.3454 28.928 28.1848 29.0887C28.0241 29.2493 27.8063 29.3397 27.5791 29.34H21.79V27.281C21.79 27.2053 21.7599 27.1326 21.7064 27.079C21.6528 27.0255 21.5802 26.9954 21.5044 26.9954C21.4286 26.9954 21.356 27.0255 21.3024 27.079C21.2488 27.1326 21.2188 27.2053 21.2188 27.281V29.34H18.7812L18.782 17.37L20 15.5407L21.2188 17.3711V26.1384C21.2188 26.2142 21.2488 26.2869 21.3024 26.3404C21.356 26.394 21.4286 26.4241 21.5044 26.4241C21.5802 26.4241 21.6528 26.394 21.7064 26.3404C21.7599 26.2869 21.79 26.2142 21.79 26.1384V18.2291L22.3085 19.0077C22.3345 19.0468 22.3699 19.0789 22.4114 19.1012C22.4529 19.1234 22.4992 19.135 22.5462 19.135C22.5492 19.135 22.5522 19.135 22.5552 19.1349C22.6038 19.1333 22.6511 19.1195 22.6928 19.0946C22.7345 19.0696 22.7691 19.0345 22.7935 18.9925L23.3695 17.9976L24.5095 17.8498C24.5577 17.8436 24.6034 17.8252 24.6425 17.7963C24.6816 17.7675 24.7126 17.7291 24.7328 17.6849C24.7529 17.6407 24.7614 17.5921 24.7575 17.5437C24.7537 17.4953 24.7375 17.4487 24.7106 17.4083L24.2359 16.6954H28.436V28.483ZM29.1787 15.8385C29.1786 15.9142 29.1485 15.9868 29.095 16.0404C29.0414 16.0939 28.9688 16.124 28.8931 16.1241H23.8556L23.1745 15.1013L24.1033 15.3837C24.1849 15.4087 24.2697 15.4214 24.3551 15.4214C24.5819 15.4204 24.7991 15.3296 24.9592 15.1689C25.1193 15.0082 25.2093 14.7907 25.2095 14.5638V13.8195H28.8931C28.9688 13.8196 29.0414 13.8498 29.095 13.9033C29.1485 13.9569 29.1786 14.0295 29.1787 14.1052V15.8385Z" fill="#101010"/>
</g>
<defs>
<clipPath id="clip0_150_6823">
<rect width="19.5" height="19.5" fill="white" transform="translate(10.25 10.4111)"/>
</clipPath>
</defs>
</svg>
