<svg width="110" height="38" viewBox="0 0 110 38" fill="none" xmlns="http://www.w3.org/2000/svg">
<g clip-path="url(#clip0_37_35675)">
<path d="M11.2517 30.7492C9.74871 30.7608 8.25965 30.4608 6.87839 29.8682C5.53714 29.293 4.32214 28.4595 3.3026 27.4152C2.2746 26.3663 1.45408 25.1325 0.8842 23.7788C0.291431 22.3854 -0.00938616 20.8852 0.000328077 19.3709C-0.0111217 17.8131 0.277225 16.2678 0.849648 14.819C1.39532 13.4421 2.19522 12.1802 3.20759 11.0991C4.19866 10.0399 5.39204 9.1901 6.71716 8.60003C8.0629 7.99898 9.52161 7.6927 10.9954 7.70174C12.4993 7.69019 13.9893 7.99016 15.3716 8.58275C16.7121 9.1594 17.9268 9.99272 18.9474 11.0358C19.9766 12.0896 20.7929 13.3321 21.3514 14.6952C21.9349 16.1351 22.2284 17.6761 22.2151 19.2298C22.2216 20.7576 21.9281 22.2719 21.3514 23.6867C20.8078 25.0518 20.0073 26.2999 18.9934 27.3634C17.9979 28.4061 16.8126 29.2494 15.5012 29.8481C14.166 30.4508 12.7165 30.7582 11.2517 30.7492ZM11.0933 24.8844C11.7996 24.8887 12.4986 24.7414 13.1432 24.4526C13.7756 24.169 14.3474 23.7663 14.8275 23.2664C15.3174 22.7486 15.6983 22.1377 15.9474 21.4698C16.2189 20.7584 16.3556 20.0027 16.3505 19.2413C16.3556 18.4842 16.2138 17.7333 15.933 17.0301C15.6656 16.3632 15.2804 15.7497 14.7958 15.2192C14.3274 14.7055 13.7605 14.2913 13.1288 14.0013C12.4968 13.7112 11.8089 13.5628 11.1135 13.5665C10.4115 13.562 9.71689 13.7104 9.07798 14.0013C8.44575 14.2904 7.87868 14.7047 7.41101 15.2192C6.92544 15.749 6.54012 16.3626 6.27379 17.0301C5.99166 17.7329 5.84983 18.4841 5.85632 19.2413C5.85144 19.9882 5.99328 20.7287 6.27379 21.4208C6.53943 22.0887 6.92483 22.7024 7.41101 23.2318C7.8791 23.7465 8.44602 24.1617 9.07798 24.4526C9.71024 24.7418 10.3981 24.8892 11.0933 24.8844Z" fill="#39B54A"/>
<path d="M30.3571 29.9173C29.4163 29.9177 28.4884 29.6978 27.6479 29.2752C26.77 28.8384 25.9819 28.2407 25.3245 27.5132C24.6401 26.7651 24.0924 25.9027 23.7064 24.9652C23.3105 24.0158 23.1088 22.9966 23.1134 21.968C23.112 20.9648 23.3138 19.9717 23.7064 19.0485C24.4874 17.2001 25.8939 15.6855 27.6795 14.7701C28.5073 14.342 29.4251 14.117 30.3571 14.1137C31.1706 14.0798 31.9769 14.2797 32.6805 14.6895C33.303 15.0902 33.8015 15.6565 34.12 16.3249C34.5009 17.1193 34.7554 17.9683 34.8743 18.8412C35.0307 19.9079 35.1058 20.9849 35.0989 22.063C35.1192 23.4736 34.985 24.8822 34.6987 26.2636C34.5076 27.292 34.0051 28.2368 33.2591 28.97C32.5874 29.6015 31.62 29.9173 30.3571 29.9173ZM31.1603 37.1525C30.3826 37.1504 29.6085 37.0478 28.8571 36.8474C28.1079 36.6569 27.3826 36.3826 26.6949 36.0297C26.1083 35.743 25.5679 35.3703 25.0913 34.9241C24.9164 34.7803 24.7725 34.6026 24.6681 34.4017C24.5637 34.2008 24.501 33.9809 24.4838 33.7552C24.4785 33.3473 24.56 32.943 24.7227 32.569C24.9015 32.178 25.1459 31.8206 25.4454 31.5123C25.7255 31.206 26.0246 30.9175 26.3408 30.6486C26.602 30.4329 26.9321 30.3185 27.2707 30.3261C27.5697 30.3194 27.8644 30.3983 28.12 30.5536C28.3676 30.7004 28.6181 30.8674 28.8743 31.0488C29.1686 31.2511 29.4855 31.4183 29.8187 31.5469C30.2804 31.7106 30.7686 31.7868 31.2582 31.7714C31.5701 31.7737 31.878 31.7017 32.1565 31.5613C32.4343 31.4222 32.6796 31.226 32.8762 30.9854C33.0871 30.7258 33.2553 30.4343 33.3743 30.1217C33.5032 29.7785 33.5677 29.4144 33.5643 29.0478V15.8469C33.5831 15.5708 33.6654 15.3026 33.8047 15.0634C33.944 14.8243 34.1366 14.6204 34.3676 14.4678C34.8167 14.1914 35.5 14.0532 36.4175 14.0532C37.3349 14.0532 37.9981 14.1914 38.4069 14.4678C38.5877 14.5916 38.7417 14.7504 38.8599 14.9349C38.9782 15.1194 39.0581 15.3258 39.095 15.5417C39.1707 15.9917 39.2083 16.4473 39.2073 16.9036V29.2464C39.2318 30.3557 39.0085 31.4565 38.5538 32.4686C38.0991 33.4806 37.4243 34.3785 36.5787 35.0968C35.8117 35.7572 34.9347 36.2776 33.9875 36.6343C33.0845 36.9776 32.1264 37.1532 31.1603 37.1525ZM31.1258 24.2655C31.5185 24.2693 31.9037 24.1582 32.2342 23.9459C32.562 23.7333 32.836 23.4475 33.0346 23.111C33.2335 22.7828 33.339 22.4065 33.3398 22.0227C33.3443 21.6182 33.2388 21.2202 33.0346 20.871C32.836 20.5334 32.5546 20.2519 32.2169 20.0533C31.8676 19.8495 31.4697 19.7441 31.0653 19.7482C30.668 19.7466 30.2784 19.8585 29.9425 20.0706C29.607 20.2783 29.3266 20.5637 29.1248 20.9027C28.929 21.244 28.8295 21.6321 28.8369 22.0256C28.8371 22.4114 28.948 22.7892 29.1565 23.1139C29.3733 23.4574 29.6695 23.7438 30.0202 23.9488C30.3524 24.1556 30.7346 24.268 31.1258 24.2742V24.2655Z" fill="#39B54A"/>
<path d="M44.1739 12.5734C43.2142 12.5734 42.53 12.4295 42.1212 12.1416C41.9318 12.0165 41.7702 11.8538 41.6464 11.6636C41.5226 11.4734 41.4392 11.2598 41.4014 11.036C41.326 10.5802 41.2885 10.1189 41.2891 9.65687C41.2874 9.18942 41.3298 8.72284 41.4158 8.26337C41.4598 8.04353 41.5481 7.83496 41.6753 7.65033C41.8025 7.46571 41.966 7.3089 42.1557 7.18945C42.5588 6.90153 43.244 6.77197 44.2056 6.77197C45.1672 6.77197 45.8467 6.91593 46.2411 7.20384C46.6165 7.46397 46.8749 7.86091 46.9609 8.30944C47.1336 9.22073 47.1336 10.1564 46.9609 11.0676C46.9202 11.2881 46.8355 11.4982 46.7119 11.6852C46.5882 11.8722 46.4281 12.0323 46.2411 12.156C45.8467 12.4352 45.1557 12.5734 44.1739 12.5734ZM44.1739 30.3982C43.2142 30.3982 42.53 30.2542 42.1212 29.9663C41.932 29.8404 41.7705 29.6771 41.6467 29.4865C41.523 29.2958 41.4395 29.0819 41.4014 28.8578C41.3259 28.403 41.2884 27.9427 41.2891 27.4816V17.0303C41.2884 16.5734 41.3308 16.1175 41.4158 15.6685C41.5085 15.2213 41.7745 14.8289 42.1557 14.5773C42.5588 14.2894 43.244 14.1454 44.2056 14.1454C45.1672 14.1454 45.8467 14.2894 46.2411 14.5773C46.6178 14.8361 46.8766 15.2337 46.9609 15.6829C47.0485 16.148 47.0919 16.6204 47.0904 17.0937V27.5133C47.0911 27.9761 47.0477 28.4378 46.9609 28.8924C46.9202 29.1129 46.8355 29.3229 46.7119 29.5099C46.5882 29.6969 46.4281 29.857 46.2411 29.9807C45.8467 30.26 45.1557 30.3982 44.1739 30.3982Z" fill="#39B54A"/>
<path d="M96.881 30.3318C95.9213 30.3318 95.2111 30.1725 94.7505 29.8539C94.2898 29.5352 94.0701 29.1715 94.0912 28.7627H94.5403C94.3585 28.9865 94.1485 29.1859 93.9156 29.3558C93.5388 29.6376 93.1239 29.8644 92.6833 30.0295C92.0769 30.2463 91.4355 30.3488 90.7918 30.3318C89.8256 30.3298 88.8732 30.102 88.0106 29.6667C87.113 29.2189 86.3089 28.6043 85.6412 27.8557C84.9444 27.0867 84.3853 26.2033 83.9886 25.2444C83.5853 24.2737 83.3807 23.232 83.3869 22.181C83.3839 21.1454 83.5905 20.12 83.9943 19.1665C84.3922 18.2109 84.9567 17.3335 85.6613 16.5753C86.337 15.838 87.1408 15.2293 88.0336 14.7787C88.8886 14.3461 89.8336 14.1212 90.7918 14.1222C91.4211 14.105 92.0476 14.2137 92.6344 14.4418C93.0717 14.6181 93.4817 14.8556 93.8522 15.1472C94.0904 15.3299 94.3009 15.5462 94.477 15.7893H94.1257C94.1076 15.5405 94.1594 15.2916 94.2754 15.0707C94.3914 14.8499 94.567 14.6659 94.7821 14.5397C95.239 14.2403 95.9491 14.0906 96.9126 14.0906C97.8762 14.0906 98.5547 14.2345 98.9481 14.5224C99.3259 14.7807 99.5859 15.1783 99.6708 15.628C99.7552 16.0829 99.7976 16.5445 99.7975 17.0071V27.4239C99.7978 27.8865 99.7554 28.3482 99.6708 28.803C99.6292 29.0239 99.5439 29.2342 99.4198 29.4216C99.2957 29.609 99.1353 29.7697 98.9481 29.8942C98.5527 30.1859 97.8637 30.3318 96.881 30.3318ZM91.5922 24.5303C91.9839 24.5335 92.3681 24.4225 92.6977 24.2107C93.0294 23.9967 93.3041 23.7052 93.4981 23.3614C93.7023 23.0123 93.8078 22.6142 93.8033 22.2098C93.8091 21.8051 93.7035 21.4067 93.4981 21.0581C93.2975 20.7184 93.018 20.432 92.6833 20.2231C92.3375 20.0097 91.9381 19.8988 91.5317 19.9036C91.119 19.8994 90.7133 20.01 90.3599 20.2231C90.0125 20.4337 89.7212 20.7251 89.5106 21.0725C89.2975 21.4259 89.1868 21.8316 89.191 22.2443C89.1896 22.6437 89.3068 23.0345 89.5279 23.3672C89.7534 23.7088 90.0549 23.9936 90.4089 24.1992C90.766 24.4147 91.175 24.5292 91.5922 24.5303Z" fill="#39B54A"/>
<path d="M64.5222 18.7031L59.6652 28.6275C59.4052 29.1553 59.0034 29.6002 58.5047 29.9123C58.0061 30.2245 57.4303 30.3916 56.842 30.3949C56.2537 30.3982 55.6761 30.2375 55.174 29.9309C54.6719 29.6244 54.2651 29.184 53.9992 28.6592L49.0213 18.7262C48.6469 17.9742 48.5848 17.1047 48.8485 16.3071C49.1122 15.5095 49.6803 14.8485 50.4292 14.4679C50.865 14.2434 51.3498 14.1306 51.8399 14.1397C52.4247 14.1335 52.9993 14.2922 53.4978 14.5978C53.9964 14.9034 54.3987 15.3433 54.6585 15.8672L56.7862 20.0938L58.8245 15.896C59.091 15.3676 59.4981 14.923 60.001 14.6111C60.5039 14.2992 61.0831 14.1321 61.6748 14.1282C62.1526 14.1382 62.6228 14.2501 63.0539 14.4564C63.43 14.6378 63.7666 14.8918 64.0443 15.2037C64.3219 15.5157 64.5351 15.8795 64.6716 16.2743C64.808 16.669 64.8651 17.0868 64.8395 17.5036C64.8138 17.9205 64.706 18.3281 64.5222 18.7031Z" fill="#39B54A"/>
<path d="M82.5388 18.7031L77.6789 28.6275C77.4189 29.1553 77.0171 29.6002 76.5184 29.9123C76.0198 30.2245 75.444 30.3916 74.8557 30.3949C74.2674 30.3982 73.6899 30.2375 73.1877 29.9309C72.6856 29.6244 72.2788 29.184 72.013 28.6592L67.038 18.7262C66.6635 17.9742 66.6014 17.1047 66.8651 16.3071C67.1288 15.5095 67.6969 14.8485 68.4458 14.4679C68.8817 14.2437 69.3664 14.1309 69.8565 14.1397C70.4413 14.1331 71.0161 14.2918 71.5147 14.5974C72.0133 14.903 72.4156 15.3431 72.6751 15.8672L74.8056 20.0938L76.844 15.896C77.11 15.3678 77.5166 14.9233 78.019 14.6114C78.5213 14.2995 79.1001 14.1323 79.6914 14.1282C80.1692 14.1382 80.6394 14.2501 81.0705 14.4564C81.8275 14.8257 82.4072 15.4801 82.6825 16.2762C82.9577 17.0723 82.9061 17.9451 82.5388 18.7031Z" fill="#39B54A"/>
<path d="M106.39 10.1232C106.208 10.4922 105.927 10.8032 105.578 11.0213C105.229 11.2395 104.826 11.3562 104.415 11.3583C104.004 11.3603 103.6 11.2478 103.249 11.0332C102.898 10.8186 102.614 10.5104 102.428 10.1433L99.238 3.78906C98.9579 4.1223 98.7815 4.53017 98.7303 4.96245C98.6792 5.39473 98.7555 5.83254 98.9501 6.22194L102.428 13.1578C102.613 13.5258 102.897 13.8348 103.248 14.0501C103.599 14.2654 104.003 14.3784 104.415 14.3763C104.827 14.3742 105.23 14.2571 105.579 14.0383C105.928 13.8194 106.208 13.5075 106.39 13.1376L109.784 6.20178C109.969 5.81649 110.04 5.38643 109.989 4.96211C109.938 4.5378 109.767 4.13684 109.496 3.80634L106.39 10.1232Z" fill="#FBB03B"/>
<path d="M99.9341 3.24485C100.238 3.08785 100.577 3.00872 100.919 3.01452C101.328 3.01071 101.73 3.12277 102.079 3.33776C102.427 3.55275 102.708 3.86189 102.888 4.22952L104.377 7.18639L105.802 4.25255C105.988 3.88282 106.272 3.5716 106.624 3.35316C106.975 3.13472 107.38 3.01754 107.794 3.01452C108.128 3.02091 108.457 3.09948 108.758 3.24485C109.037 3.38477 109.283 3.58084 109.481 3.82068L109.769 3.19879C110.022 2.67066 110.056 2.06418 109.864 1.51109C109.672 0.958 109.269 0.502954 108.744 0.24479C108.443 0.0994148 108.114 0.0208433 107.78 0.0144579C107.366 0.0172045 106.961 0.133956 106.61 0.35187C106.258 0.569784 105.974 0.88042 105.787 1.24961L104.362 4.18345L102.874 1.22945C102.693 0.86183 102.413 0.552684 102.064 0.337698C101.716 0.122711 101.314 0.0106506 100.904 0.0144579C100.562 0.00865333 100.224 0.0877924 99.9197 0.24479C99.4017 0.512593 99.0097 0.973273 98.8282 1.52749C98.6467 2.0817 98.6902 2.68505 98.9495 3.20743L99.2374 3.78325C99.4318 3.55951 99.6686 3.37652 99.9341 3.24485Z" fill="#FBB03B"/>
</g>
<defs>
<clipPath id="clip0_37_35675">
<rect width="110" height="37.161" fill="white"/>
</clipPath>
</defs>
</svg>
