<svg width="40" height="41" viewBox="0 0 40 41" fill="none" xmlns="http://www.w3.org/2000/svg">
<rect y="0.161133" width="40" height="40" rx="20" fill="#E4FFED"/>
<path d="M12.125 16.0361H8.75V25.7861H12.125V16.0361Z" fill="#2BA84A"/>
<path d="M28.625 12.6611H17.375V22.4111H28.625V12.6611Z" fill="#11822D"/>
<path d="M20.57 21.541L21.9838 22.2273C23.1575 22.681 24.4588 22.6248 25.5988 22.0773L29.2063 20.341C29.3638 20.2623 29.5325 20.2285 29.705 20.2285C30.05 20.2285 30.3913 20.386 30.62 20.6785C31.0775 21.2635 30.9013 22.1335 30.2488 22.4823L27.605 23.8998C26.0675 24.7248 24.5375 25.1673 22.82 25.381C21.0538 25.6023 19.2688 25.5235 17.5138 25.2198L17.3075 25.1823C16.2238 24.9948 15.59 24.7698 15.08 24.4698C14.5625 24.1698 14.1688 23.7948 13.5725 23.3073L12.26 23.2023L12.125 23.161V18.286L12.26 18.3273L13.3513 18.1998L16.04 17.9298C16.7113 17.8623 17.39 17.986 17.9938 18.2935L20.6938 19.6548C21.1663 19.8948 21.38 20.4573 21.185 20.9523C20.9675 21.496 20.3488 21.7473 19.82 21.5073L16.7 20.0785" fill="#FAD6A5"/>
<path d="M21.875 12.6611V16.7861H24.125V12.6611" fill="#34DC5E"/>
<path d="M10.25 18.6611C10.6642 18.6611 11 18.3253 11 17.9111C11 17.4969 10.6642 17.1611 10.25 17.1611C9.83579 17.1611 9.5 17.4969 9.5 17.9111C9.5 18.3253 9.83579 18.6611 10.25 18.6611Z" fill="#34DC5E"/>
<path d="M12.5 25.7861V23.5661L13.2912 23.6299C13.4075 23.7236 13.5125 23.8136 13.6137 23.8999C14.0037 24.2261 14.3412 24.5111 14.7537 24.7511C15.3462 25.0999 16.0512 25.3286 17.105 25.5086L17.315 25.5461C18.4437 25.7411 19.55 25.8386 20.63 25.8386C21.3462 25.8386 22.0475 25.7974 22.73 25.7111C24.575 25.4824 26.1387 24.9986 27.65 24.1886L30.2937 22.7711C30.6987 22.5536 30.9875 22.1674 31.085 21.7099C31.1825 21.2486 31.0737 20.7724 30.785 20.4049C30.4962 20.0336 30.0425 19.8086 29.5737 19.8086C29.3712 19.8086 29.18 19.8536 29.0037 19.9249V12.6611C29.0037 12.4549 28.835 12.2861 28.6287 12.2861H17.375C17.1687 12.2861 17 12.4549 17 12.6611V17.5661C16.6287 17.4949 16.25 17.4761 15.8675 17.5136L13.1712 17.7874L12.4962 17.8661V16.0361C12.4962 15.8299 12.3275 15.6611 12.1212 15.6611H8.75V16.4111H11.75V25.4111H8.75V26.1611H12.125C12.3312 26.1611 12.5 25.9924 12.5 25.7861ZM22.25 13.0361H23.75V16.4111H22.25V13.0361ZM17.75 13.0361H21.5V16.7861C21.5 16.9924 21.6687 17.1611 21.875 17.1611H24.125C24.3312 17.1611 24.5 16.9924 24.5 16.7861V13.0361H28.25V20.2774L27.125 20.8174V20.5324H23C22.7937 20.5324 22.625 20.7011 22.625 20.9074C22.625 21.1136 22.7937 21.2824 23 21.2824H26.1575L25.3025 21.6949C24.245 22.2011 23.0675 22.2499 22.0025 21.8411L21.1437 21.4586C21.3912 21.1811 21.5487 20.8249 21.47 20.3374C21.3912 19.8499 21.065 19.4411 20.6262 19.2161L18.0312 17.9074C17.9412 17.8624 17.8437 17.8286 17.75 17.7911V13.0361ZM12.5 18.6236L15.9462 18.2599C16.3025 18.2224 16.6587 18.2561 17 18.3386V18.3611H17.0825C17.2925 18.4174 17.495 18.4886 17.69 18.5861L20.3487 19.9249C20.6412 20.0711 20.8137 20.4049 20.72 20.7199C20.66 20.9149 20.525 21.0611 20.3412 21.1361C20.1762 21.2036 20 21.1961 19.8387 21.1249L17.06 19.8499C16.8725 19.7636 16.6475 19.8499 16.5612 20.0336C16.475 20.2211 16.5612 20.4461 16.745 20.5324L19.5237 21.8074C19.7075 21.8936 19.9062 21.9349 20.1012 21.9349C20.1687 21.9349 20.2362 21.9236 20.3 21.9161L21.7062 22.5386C22.9662 23.0261 24.3912 22.9661 25.6213 22.3774L29.2325 20.6374C29.525 20.4911 29.96 20.5811 30.185 20.8699C30.335 21.0649 30.395 21.3161 30.3425 21.5599C30.2937 21.7999 30.1437 21.9986 29.93 22.1149L27.2862 23.5324C25.8612 24.2974 24.38 24.7549 22.6287 24.9724C20.9825 25.1786 19.235 25.1261 17.4387 24.8149L17.2287 24.7774C16.2687 24.6124 15.6387 24.4099 15.125 24.1099C14.7687 23.8999 14.4687 23.6486 14.09 23.3336C13.9587 23.2249 13.82 23.1086 13.67 22.9811C13.61 22.9324 13.5387 22.9024 13.4637 22.8986L12.4962 22.8199V18.6274L12.5 18.6236Z" fill="#101010"/>
<path d="M27.125 19.0361H24.125C23.9179 19.0361 23.75 19.204 23.75 19.4111C23.75 19.6182 23.9179 19.7861 24.125 19.7861H27.125C27.3321 19.7861 27.5 19.6182 27.5 19.4111C27.5 19.204 27.3321 19.0361 27.125 19.0361Z" fill="#101010"/>
<path d="M11.375 17.9111C11.375 17.2924 10.8687 16.7861 10.25 16.7861C9.63125 16.7861 9.125 17.2924 9.125 17.9111C9.125 18.5299 9.63125 19.0361 10.25 19.0361C10.8687 19.0361 11.375 18.5299 11.375 17.9111ZM10.25 18.2861C10.0437 18.2861 9.875 18.1174 9.875 17.9111C9.875 17.7049 10.0437 17.5361 10.25 17.5361C10.4562 17.5361 10.625 17.7049 10.625 17.9111C10.625 18.1174 10.4562 18.2861 10.25 18.2861Z" fill="#101010"/>
<path d="M10.625 20.1611C10.625 19.954 10.4571 19.7861 10.25 19.7861C10.0429 19.7861 9.875 19.954 9.875 20.1611V24.2861C9.875 24.4932 10.0429 24.6611 10.25 24.6611C10.4571 24.6611 10.625 24.4932 10.625 24.2861V20.1611Z" fill="#101010"/>
</svg>
