<svg width="40" height="41" viewBox="0 0 40 41" fill="none" xmlns="http://www.w3.org/2000/svg">
<rect y="0.161133" width="40" height="40" rx="20" fill="#E4FFED"/>
<path d="M14.3557 12.4329C14.554 12.4139 14.7607 12.4252 14.9602 12.4252L24.0852 12.4252C25.1785 12.4254 25.2287 12.472 25.7602 13.5243L26.3158 14.6238C26.476 14.936 26.8507 15.4824 26.8821 15.7668C26.9844 16.6927 26.2692 17.1719 25.4169 17.2677C25.4224 17.7816 25.4123 18.2979 25.4113 18.8121C25.4101 19.414 25.3671 19.3618 25.6233 19.9061C25.8945 20.4821 26.1948 21.046 26.4852 21.6127C26.8138 22.2541 26.7787 22.137 26.7775 22.8429L26.7769 24.0414C26.7769 24.2989 26.7681 24.5593 26.7901 24.816C29.2218 25.963 28.8234 29.4927 26.1052 30.0139C24.547 30.2097 23.1833 29.3016 22.8869 27.7292C22.5394 27.7051 22.1831 27.7199 21.8348 27.7199L14.1797 27.7203C13.8823 27.7203 12.2889 27.7531 12.1145 27.6855C11.9762 27.498 12.0438 26.3774 12.0441 26.1127L12.0443 23.6938C12.0443 23.4486 12.0046 22.4117 12.0496 22.245C12.1268 21.9587 12.3382 21.6311 12.4734 21.3611C12.7991 20.7108 13.119 20.0537 13.4681 19.4155C13.438 18.7714 13.4306 17.9088 13.4688 17.2655C13.3656 17.2338 13.2563 17.2244 13.1515 17.1979C12.6428 17.0693 12.0864 16.6541 12.0416 16.0975C12.0023 15.6086 12.1471 15.3911 12.3799 14.9894L12.9538 14.0072C13.2918 13.4285 13.63 12.4861 14.3557 12.4329ZM15.7307 16.4252C15.1015 16.9266 14.6811 17.2287 13.8362 17.2646C13.8284 17.9289 13.8281 18.5962 13.8377 19.2604C14.452 19.2909 15.0739 19.2724 15.6892 19.2726L22.781 19.2725C23.4693 19.2724 24.1629 19.2901 24.8507 19.2673L25.0358 19.2641C25.0466 18.6043 25.0319 17.9438 25.0466 17.2843C24.4799 17.2531 23.6456 16.8299 23.2181 16.4306C22.5779 16.9961 22.0717 17.3179 21.1532 17.2644C20.5149 17.2271 19.9242 16.8666 19.4738 16.4272C18.9852 16.842 18.5824 17.1702 17.9193 17.2485C17.2388 17.3288 16.6087 17.1639 16.074 16.7174C15.9774 16.6367 15.8297 16.4814 15.7307 16.4252Z" fill="#101010" stroke="#101010" stroke-width="0.3"/>
<path d="M23.5496 16.1983C23.7021 16.0985 24.0743 16.2055 24.2509 16.23C24.6794 16.2893 25.2593 16.3652 25.6846 16.3207C25.9551 16.2924 26.203 16.2023 26.4768 16.2022C26.2858 16.6571 25.7684 16.8483 25.3079 16.8945C24.6428 16.9612 24.0441 16.6019 23.5496 16.1983ZM19.8346 16.2291C19.8898 16.1852 20.3681 16.2434 20.4609 16.2449C21.1457 16.2568 21.8188 16.255 22.5003 16.1855C22.5991 16.1754 22.8005 16.1081 22.8793 16.1927C22.0607 17.082 20.6733 17.1248 19.8346 16.2291ZM12.4307 16.0936L12.4472 16.0791C12.5668 16.0911 12.7234 16.1515 12.8604 16.1709C13.4332 16.2521 14.0685 16.306 14.6453 16.2536C14.7813 16.2412 15.2375 16.157 15.3273 16.2286C14.6381 16.902 13.3875 17.1927 12.6149 16.4848C12.4907 16.3711 12.438 16.2601 12.4307 16.0936ZM16.0265 16.1461C16.121 16.0543 16.2291 16.1374 16.3418 16.1603C16.8274 16.2591 17.6781 16.2529 18.1776 16.2391C18.4138 16.2326 19.0143 16.116 19.1413 16.1704C18.653 16.724 17.9181 17.0174 17.1811 16.8594C16.8019 16.7781 16.2409 16.4775 16.0265 16.1461Z" fill="#2BA84A"/>
<path d="M22.6591 12.7888C23.1285 12.8166 24.447 12.7294 24.8034 12.8437C25.1588 12.9576 25.6511 14.1935 25.8314 14.5451C26.0184 14.9094 26.2442 15.2527 26.4299 15.6171C26.5292 15.8182 26.5275 15.9901 26.4766 16.202C26.2029 16.2021 25.9549 16.2923 25.6845 16.3205C25.2592 16.365 24.6792 16.2891 24.2507 16.2298C24.0741 16.2053 23.702 16.0983 23.5495 16.1981C23.5042 16.1669 23.462 16.1227 23.4204 16.0863C23.4083 15.9592 23.3884 15.8324 23.362 15.7076C23.1171 14.7369 22.8919 13.7623 22.6591 12.7888ZM12.4478 15.6616C12.5389 15.41 12.825 14.9818 12.9692 14.7301L13.587 13.6503C13.7974 13.2907 13.9632 12.8369 14.4336 12.8028C14.9454 12.7657 15.9366 12.765 16.4399 12.8107C16.2212 13.6833 15.6408 14.9083 15.563 15.7439L15.5414 16.0126C15.4753 16.0868 15.4043 16.1659 15.3272 16.2284C15.2374 16.1568 14.7812 16.2411 14.6452 16.2534C14.0683 16.3058 13.4331 16.2519 12.8603 16.1707C12.7233 16.1513 12.5666 16.0909 12.447 16.0789L12.4305 16.0934C12.4087 15.9619 12.4282 15.7934 12.4478 15.6616ZM16.8637 12.7918C17.6653 12.8206 18.4708 12.789 19.273 12.7976C19.2465 13.1464 19.2615 13.5042 19.2615 13.8543L19.2609 15.662C19.2606 15.7821 19.2569 15.9034 19.2632 16.0233C19.2252 16.0768 19.1891 16.1248 19.1412 16.1702C19.0142 16.1158 18.4136 16.2324 18.1774 16.2389C17.678 16.2527 16.8273 16.2589 16.3416 16.1602C16.2289 16.1372 16.1209 16.0541 16.0263 16.1459C15.9312 16.0136 15.9499 15.8723 15.9618 15.719C16.026 14.9777 16.6326 13.5679 16.8637 12.7918ZM19.6376 12.7997C20.497 12.7887 21.4471 12.7685 22.3015 12.812C22.3833 13.5154 22.7601 14.9327 22.968 15.6387C22.9992 15.7597 23.0192 15.8813 23.0314 16.0057C22.9879 16.0712 22.939 16.141 22.8792 16.1925C22.8004 16.1079 22.599 16.1753 22.5001 16.1853C21.8187 16.2548 21.1456 16.2566 20.4608 16.2447C20.3679 16.2432 19.8896 16.185 19.8344 16.2289C19.6625 16.1082 19.6576 15.9066 19.6592 15.718L19.6376 12.7997Z" fill="#8EECA6"/>
<path d="M25.4377 24.9836C27.5017 24.7418 28.8418 27.1967 27.4849 28.8143C27.053 29.3292 26.4554 29.5965 25.7917 29.6562C24.5874 29.8305 23.3192 28.719 23.2147 27.5154C23.0998 26.1917 24.1395 25.0922 25.4377 24.9836Z" fill="#BBF3C9"/>
<path d="M26.4798 26.6399C27.1089 26.64 26.1388 27.4115 26.0581 27.4876C25.276 28.226 25.2688 28.646 24.5146 27.7486C24.4336 27.653 24.1497 27.2832 24.4959 27.2884C24.695 27.2914 24.9933 27.7242 25.121 27.8591L25.9373 27.081C26.0912 26.9329 26.2587 26.6825 26.4798 26.6399Z" fill="#101010"/>
<path d="M13.797 19.6488C13.9734 19.6427 14.1477 19.6527 14.3235 19.6506L23.2722 19.6413C23.876 19.6413 24.4878 19.6206 25.0905 19.6491C25.4494 20.2706 25.7827 21.0932 26.1273 21.7549C26.2231 21.9159 26.3007 22.0887 26.3752 22.2605C26.0106 22.2795 25.644 22.272 25.279 22.272L13.2082 22.2718C12.966 22.2719 12.7178 22.2825 12.4766 22.2631C12.5351 22.1203 12.5905 21.955 12.6735 21.8246C12.9285 21.2853 13.4749 20.1283 13.797 19.6488Z" fill="#BBF3C9"/>
<path d="M12.4541 22.811C12.6865 22.8287 12.9222 22.8219 13.1553 22.8218L23.3301 22.8208C24.3523 22.8208 25.3776 22.8396 26.3994 22.8159C26.3866 23.3778 26.4011 23.9404 26.3945 24.5024C26.1547 24.4385 25.9036 24.4009 25.6436 24.4009C24.0364 24.4009 22.7334 25.7039 22.7334 27.311C22.7334 27.3473 22.734 27.3835 22.7354 27.4194C21.8445 27.3966 20.9488 27.4155 20.0576 27.4155H13.3877C13.0697 27.4155 12.7505 27.4208 12.4326 27.4097L12.4355 27.0825L12.4541 22.811Z" fill="#2BA84A"/>
</svg>
